<?xml version="1.0" encoding="utf-8"?>
<!-- Generator: Adobe Illustrator 16.0.0, SVG Export Plug-In . SVG Version: 6.00 Build 0)  -->
<!DOCTYPE svg PUBLIC "-//W3C//DTD SVG 1.1//EN" "http://www.w3.org/Graphics/SVG/1.1/DTD/svg11.dtd">
<svg version="1.1" id="Ebene_1" xmlns="http://www.w3.org/2000/svg" xmlns:xlink="http://www.w3.org/1999/xlink" x="0px" y="0px"
	 width="215px" height="168.5px" viewBox="0 0 215 168.5" enable-background="new 0 0 215 168.5" xml:space="preserve">
<path opacity="0.2" fill="#34495E" enable-background="new    " d="M10.375,18.138V-2.724h10.454v1.448
	c0,0,12.535,1.991,16.427-8.01l3.756-10.228c0,0,1.629-5.34,4.389-0.633c2.761,4.707-0.679,13.124-0.679,13.124
	s2.399,3.756,11.992,3.032c0,0,0.363,3.077-0.634,3.666c-0.995,0.588-2.443,0.814-2.443,0.814S52.189,0.76,52.28,1.892
	c0.091,1.131,1.402,1.041,1.402,1.041h2.398c0,0,0.182,2.896-0.634,3.484c-0.814,0.588-3.71,0.633-4.072,1.855
	s1.991,1.765,1.991,1.765s1.041,0.227,1.72,0.181c0,0,0,3.801-2.443,4.48c0,0-1.675-0.09-1.901,1.358
	c-0.226,1.448,1.358,1.357,1.358,1.357h0.724c0,0,0.859,3.53-5.25,4.39c0,0-3.077,0.453-7.693-2.036
	c-4.616-2.489-11.042-3.213-11.042-3.213l-7.512-0.226v1.81H10.375z M16.619,12.527c-1.05,0-1.9,0.851-1.9,1.901
	c0,1.049,0.851,1.9,1.9,1.9c1.049,0,1.901-0.852,1.901-1.9C18.52,13.378,17.669,12.527,16.619,12.527z"/>
<path opacity="0.2" fill="#34495E" enable-background="new    " d="M129.5,12.075H84.383v-23.539H129.5V12.075z M107.519-6.617
	c-4.111,0-7.443,3.332-7.443,7.442c0,4.11,3.332,7.442,7.443,7.442c4.11,0,7.442-3.332,7.442-7.442
	C114.961-3.286,111.629-6.617,107.519-6.617z"/>
<g opacity="0.2">
	<path fill="#34495E" d="M107.149,5.775V4.591c-0.835-0.038-1.645-0.262-2.119-0.536l0.374-1.458
		c0.524,0.287,1.259,0.548,2.069,0.548c0.71,0,1.196-0.274,1.196-0.773c0-0.473-0.399-0.772-1.321-1.083
		c-1.334-0.449-2.243-1.072-2.243-2.28c0-1.097,0.772-1.957,2.106-2.218v-1.184h1.221v1.096c0.834,0.038,1.396,0.212,1.807,0.412
		l-0.359,1.408c-0.322-0.138-0.896-0.424-1.794-0.424c-0.81,0-1.072,0.349-1.072,0.698c0,0.411,0.436,0.673,1.495,1.072
		c1.48,0.523,2.082,1.208,2.082,2.33c0,1.109-0.783,2.056-2.218,2.305v1.271H107.149z"/>
</g>
<path opacity="0.2" fill="#34495E" enable-background="new    " d="M194.348,22.83h-30.772v-3.099c0,0,1.655-0.288,1.655-3.676
	c0,0-1.226,1.009-2.09,0.649c0,0-1.371-0.505-1.227-1.658c0,0,0.793-1.37-0.432-2.307c0,0-3.748-2.883-1.803-5.982
	c0,0,2.736-2.739,5.549-1.586V2.649c0,0-1.008,0.721-2.377,0c0,0-4.83-0.36-4.83-5.406c0,0,0.723-4.121,2.019-5.196
	c0,0,1.874-1.867,1.657-4.39c0,0-0.358-5.838,3.894-7.063c0,0,1.874,0.433,3.531-1.369c0,0,4.469-4.253,7.063-0.793
	c0,0,6.701-5.189,12.252,1.082c0,0,5.188-0.433,6.631,4.757c1.438,5.189-3.459,8.433-3.459,8.433l0.072,1.586
	c0,0,13.69-2.09,11.963,7.856c-1.729,9.946-12.035,11.532-12.035,11.532v3.82c0,0-0.146,1.658,2.449,1.658L194.348,22.83z
	 M191.896-1.387V9.28c0,0,6.773-0.792,7.496-8.577C199.393,0.703,200.186-3.045,191.896-1.387z M165.445,13.821V8.632
	c0,0-1.297-1.514-3.748,0.648c0,0-0.575,1.37,0.722,2.018c0,0,1.802,0.433,1.44,1.586c0,0-0.791,1.585,0.289,1.657
	C164.148,14.542,165.445,14.614,165.445,13.821z M164.438-11.188c0,0,1.01,2.09-0.576,4.108c0,0-3.529,5.19-1.227,6.704
	c0,0,2.596,1.008,2.812-1.73c0,0-0.648-6.559,2.521-9.081c0,0,1.153-1.514,2.812,0c0,0,2.234,2.667,5.982-0.36
	c0,0,1.803-1.802,3.242,0.216c0,0,2.451,3.964,5.405-0.072c0,0,4.18,3.459,6.485-0.505c0,0,1.875-3.387-1.873-4.685
	c0,0-2.233,0.865-3.604-1.874c0,0-2.737-4.973-8.071,0.504c0,0-5.839-3.892-7.855,1.514c0,0-4.035-0.792-5.045,2.234
	C165.445-14.216,164.218-11.878,164.438-11.188z M174.312-7.952h-3.748v23.07h3.748V-7.952z M180.714-7.952h-3.748v23.07h3.748
	V-7.952z M186.964-7.952h-3.748v23.07h3.748V-7.952z"/>
<path opacity="0.2" fill="#34495E" enable-background="new    " d="M10.068,187.139v-20.861h10.454v1.447
	c0,0,12.535,1.991,16.427-8.01l3.756-10.229c0,0,1.629-5.34,4.389-0.633c2.761,4.707-0.679,13.123-0.679,13.123
	s2.399,3.756,11.992,3.03c0,0,0.363,3.076-0.634,3.665c-0.995,0.592-2.443,0.812-2.443,0.812s-1.448,0.271-1.357,1.402
	c0.091,1.131,1.402,1.041,1.402,1.041h2.398c0,0,0.182,2.896-0.634,3.484c-0.814,0.588-3.71,0.633-4.072,1.854
	c-0.362,1.225,1.991,1.768,1.991,1.768s1.041,0.227,1.72,0.182c0,0,0,3.803-2.443,4.48c0,0-1.675-0.094-1.901,1.354
	c-0.226,1.447,1.358,1.357,1.358,1.357h0.724c0,0,0.859,3.528-5.25,4.39c0,0-3.077,0.452-7.693-2.035
	c-4.616-2.49-11.042-3.214-11.042-3.214l-7.512-0.228v1.811H10.068V187.139z M16.312,181.527c-1.05,0-1.9,0.851-1.9,1.897
	c0,1.052,0.851,1.9,1.9,1.9s1.901-0.854,1.901-1.9C18.213,182.378,17.362,181.527,16.312,181.527z"/>
<path opacity="0.2" fill="#34495E" enable-background="new    " d="M129.193,181.075H84.076v-23.539h45.117V181.075z
	 M107.212,162.383c-4.111,0-7.443,3.332-7.443,7.442s3.332,7.442,7.443,7.442c4.108,0,7.44-3.332,7.44-7.442
	S111.322,162.383,107.212,162.383z"/>
<g opacity="0.2">
	<path fill="#34495E" d="M106.842,174.775v-1.188c-0.835-0.038-1.646-0.262-2.118-0.535l0.373-1.455
		c0.523,0.283,1.26,0.547,2.068,0.547c0.711,0,1.196-0.273,1.196-0.771c0-0.475-0.398-0.771-1.32-1.084
		c-1.334-0.449-2.243-1.072-2.243-2.28c0-1.097,0.772-1.956,2.106-2.218v-1.184h1.222v1.096c0.834,0.038,1.396,0.213,1.806,0.412
		l-0.361,1.408c-0.321-0.142-0.896-0.424-1.792-0.424c-0.811,0-1.072,0.348-1.072,0.694c0,0.411,0.437,0.673,1.495,1.072
		c1.481,0.521,2.081,1.208,2.081,2.327c0,1.109-0.785,2.058-2.221,2.308v1.271h-1.221V174.775z"/>
</g>
<path opacity="0.2" fill="#34495E" enable-background="new    " d="M194.041,191.83h-30.775v-3.1c0,0,1.656-0.287,1.656-3.676
	c0,0-1.225,1.01-2.088,0.646c0,0-1.371-0.506-1.227-1.657c0,0,0.793-1.37-0.435-2.308c0,0-3.745-2.885-1.803-5.981
	c0,0,2.735-2.737,5.549-1.586v-2.521c0,0-1.008,0.722-2.377,0c0,0-4.83-0.359-4.83-5.404c0,0,0.726-4.121,2.021-5.196
	c0,0,1.875-1.866,1.658-4.39c0,0-0.359-5.838,3.893-7.063c0,0,1.875,0.433,3.531-1.368c0,0,4.469-4.254,7.062-0.795
	c0,0,6.701-5.188,12.252,1.082c0,0,5.188-0.433,6.634,4.758c1.439,5.189-3.459,8.435-3.459,8.435l0.069,1.586
	c0,0,13.69-2.09,11.963,7.854c-1.729,9.945-12.032,11.531-12.032,11.531v3.819c0,0-0.146,1.658,2.446,1.658L194.041,191.83z
	 M191.59,167.613v10.667c0,0,6.775-0.792,7.496-8.577C199.086,169.703,199.879,165.955,191.59,167.613z M165.139,182.82v-5.188
	c0,0-1.297-1.514-3.748,0.648c0,0-0.576,1.37,0.721,2.019c0,0,1.806,0.432,1.441,1.586c0,0-0.791,1.585,0.289,1.656
	C163.842,183.541,165.139,183.613,165.139,182.82z M164.129,157.812c0,0,1.01,2.09-0.576,4.105c0,0-3.531,5.188-1.225,6.703
	c0,0,2.594,1.008,2.811-1.729c0,0-0.646-6.561,2.523-9.08c0,0,1.152-1.517,2.811,0c0,0,2.234,2.666,5.982-0.36
	c0,0,1.801-1.804,3.242,0.216c0,0,2.451,3.964,5.406-0.07c0,0,4.18,3.459,6.483-0.507c0,0,1.875-3.387-1.873-4.684
	c0,0-2.231,0.864-3.604-1.875c0,0-2.738-4.974-8.072,0.505c0,0-5.836-3.893-7.854,1.514c0,0-4.035-0.792-5.045,2.234
	C165.139,154.784,163.91,157.122,164.129,157.812z M174.004,161.048h-3.748v23.07h3.748V161.048z M180.406,161.048h-3.748v23.07
	h3.748V161.048z M186.656,161.048h-3.748v23.07h3.748V161.048z"/>
<polygon opacity="0.2" fill="#34495E" enable-background="new    " points="-24.535,38.021 14.391,38.021 16.375,33.5 24.535,33.5 
	23.322,38.021 19.794,38.021 11.964,60.517 -13.618,60.517 "/>
<circle opacity="0.2" fill="#34495E" enable-background="new    " cx="4.246" cy="66.36" r="3.198"/>
<circle opacity="0.2" fill="#34495E" enable-background="new    " cx="-6.12" cy="66.36" r="3.198"/>
<rect x="-19.667" y="129.408" opacity="0.2" fill="#34495E" enable-background="new    " width="31.031" height="4.29"/>
<path opacity="0.2" fill="#34495E" enable-background="new    " d="M9.754,99.755c0,0-0.077,2.529-0.46,3.449h10.344
	c0,0-0.766,16.78-15.094,19.844c0,0-0.613,2.988-1.686,3.448h-13.792c0,0-9.118-8.504-7.815-26.741H9.754z M5.924,118.066
	c5.899,0,9.96-11.416,9.96-11.416H8.759C7.49,113.668,5.924,118.066,5.924,118.066z"/>
<path opacity="0.2" fill="#34495E" enable-background="new    " d="M-8.174,88.186c0,0-2.988,2.375-0.843,4.6
	c0,0,2.452,2.986,0.383,4.979c0,0,1.915,0.153,2.988-4.138c0,0,0.306-1.303-1.303-2.222C-6.948,91.404-8.404,90.714-8.174,88.186z"
	/>
<path opacity="0.2" fill="#34495E" enable-background="new    " d="M-3.163,84.125c0,0-4.542,3.609-1.281,6.986
	c0,0,3.727,4.543,0.583,7.57c0,0,2.912,0.231,4.542-6.289c0,0,0.466-1.979-1.98-3.377C-1.3,89.018-3.513,87.969-3.163,84.125z"/>
<polygon opacity="0.2" fill="#34495E" enable-background="new    " points="190.93,38.021 229.855,38.021 231.84,33.5 240,33.5 
	238.787,38.021 235.259,38.021 227.43,60.517 201.848,60.517 "/>
<circle opacity="0.2" fill="#34495E" enable-background="new    " cx="219.71" cy="66.36" r="3.198"/>
<circle opacity="0.2" fill="#34495E" enable-background="new    " cx="209.346" cy="66.36" r="3.198"/>
<rect x="195.798" y="129.408" opacity="0.2" fill="#34495E" enable-background="new    " width="31.031" height="4.29"/>
<path opacity="0.2" fill="#34495E" enable-background="new    " d="M225.219,99.755c0,0-0.076,2.529-0.459,3.449h10.344
	c0,0-0.766,16.78-15.094,19.844c0,0-0.613,2.988-1.686,3.448h-13.793c0,0-9.117-8.504-7.814-26.741H225.219z M221.389,118.066
	c5.899,0,9.961-11.416,9.961-11.416h-7.125C222.955,113.668,221.389,118.066,221.389,118.066z"/>
<path opacity="0.2" fill="#34495E" enable-background="new    " d="M207.291,88.186c0,0-2.988,2.375-0.844,4.6
	c0,0,2.451,2.986,0.384,4.979c0,0,1.915,0.153,2.987-4.138c0,0,0.307-1.303-1.303-2.222
	C208.518,91.404,207.061,90.714,207.291,88.186z"/>
<path opacity="0.2" fill="#34495E" enable-background="new    " d="M212.303,84.125c0,0-4.543,3.609-1.281,6.986
	c0,0,3.729,4.543,0.582,7.57c0,0,2.912,0.231,4.541-6.289c0,0,0.467-1.979-1.979-3.377
	C214.165,89.018,211.952,87.969,212.303,84.125z"/>
<path opacity="0.2" fill="#34495E" enable-background="new    " d="M152.79,40.658c0,0-1.312-1.685-0.417-3.534
	c0,0,0.906-6.574-5.324-6.608c0,0-2.152,0.367-4.482,2.069c0,0-3.471,4.476,0.209,7.13c0,0,1.031,1.438,1.02,3.372l2.116,13.804
	c0,0,0.3,3.888-1.354,6.908c0,0-2.091,3.783-2.016,6.444c0,0,3.062,16.51,5.906,27.048c0,0,1.181,6.117,6.419,4.703l16.897-4.561
	c0,0,4.398-1.576,2.879-7.217l-7.207-26.697c0,0-1.767-4.404-6.478-6.109c0,0-1.474-0.729-3.021-3.771L152.79,40.658z
	 M148.831,61.357c0.425-1.032,0.46-2.27,0.46-2.27c-0.525-3.291-0.113-15.523-0.113-15.523
	c-0.533,15.912,10.711,51.602,10.711,51.602l-4.601,1.242C145.966,63.418,148.831,61.357,148.831,61.357z"/>
<path opacity="0.2" fill="#34495E" enable-background="new    " d="M90.139,148.549l3.565-14.635l29.646-30.021
	c0,0,4.596-4.971,11.258,1.69c0,0,6.379,5.252,1.312,10.317l-28.144,28.895L90.139,148.549z M95.768,143.295l8.632-2.627
	c0,0,0.938-6.566-6.005-5.254L95.768,143.295z M102.335,131.475c0,0,5.253,0.75,5.815,5.441l22.211-21.695
	c0,0,2.744-2.134,0.305-5.136c0,0-2.626-4.501-6.473-0.562L102.335,131.475z"/>
<path opacity="0.2" fill="#34495E" enable-background="new    " d="M49.912,75.701l-5.014,23.785l-7.809-1.646
	c0,0-4.534-0.214-3.299-6.072l2.507-11.892c0,0,1.004-5.906,5.086-5.045c0,0,3.115-15.657,9.562-19.86
	c0,0,10.14-10.284,23.452-7.478c0,0,17.404,2.742,21.548,18.261c0,0,1.633,7.204-1.136,20.339c0,0,4.825,0.091,3.53,6.121
	L95.57,105.35c0,0-0.446,4.752-4.528,3.895l-8.697-1.833l4.683-22.216l3.194,0.675c0,0,9.537-23.759-16.682-29.286
	c0,0-21.707-4.946-26.683,18.662L49.912,75.701z"/>
</svg>
